<svg xmlns="http://www.w3.org/2000/svg" viewBox="0 0 760 360" width="760" height="360" role="img"><title>Axial roll</title><style>
:root{--bg:#ffffff;--pan:#f4f6f8;--fg:#1b1d21;--mut:#6b7178;--grid:#dfe3e8;
--warn:#c8384b;--ok:#1f8a7d;--acc:#3f6fd0;--halo:#ffffff;
--charge:#1f8a45;--repair:#7b3fcf;--crash:#d1303f}
@media (prefers-color-scheme:dark){:root{--bg:#14161a;--pan:#1c1f25;--fg:#e7e9ec;
--mut:#8b9199;--grid:#2b3037;--warn:#ef6d7d;--ok:#4fbfae;--acc:#7aa2f7;--halo:#14161a;
--charge:#4cc97a;--repair:#a98bf0;--crash:#f0524d}}
text{font-family:'DejaVu Sans','Segoe UI',Helvetica,Arial,sans-serif;fill:var(--fg)}
.mut{fill:var(--mut)}
.ttl{font-weight:600}
.grid{stroke:var(--grid);stroke-width:1;fill:none}
.axis{stroke:var(--mut);stroke-width:1;fill:none;opacity:.5}
.pan{fill:var(--pan)}
</style><rect width="760" height="360" fill="var(--bg)"/><text x="14" y="26" font-size="15" text-anchor="start" class="ttl" >Axial roll</text><text x="746" y="26" font-size="11" text-anchor="end" class="mut" >looking from the side</text><rect x="5" y="44" width="750" height="242" rx="6" class="pan"/><line x1="14" y1="219.6" x2="746" y2="219.6" class="axis" stroke-dasharray="5 4"/><text x="18" y="214.6" font-size="9.5" text-anchor="start" class="mut" >ground</text><polyline points="16,165 34.2,165 52.4,165 70.6,165 88.8,165 107,165 125.2,165 143.4,165 161.6,165 179.8,165 198,165 216.2,165 234.4,165 252.6,165 270.8,165 289,165 307.2,165 325.4,165 343.6,165 361.8,165 380,165 398.2,165 416.4,165 434.6,165 452.8,165 471,165 489.2,165 507.4,165 525.6,165 543.8,165 562,165 580.2,165 598.4,165 616.6,165 634.8,165 653,165 671.2,165 689.4,165 707.6,165 725.8,165 744,165" fill="none" stroke="var(--grid)" stroke-width="6" stroke-linecap="round" stroke-linejoin="round" /><polyline points="16,165 34.2,165 52.4,165 70.6,165 88.8,165 107,165 125.2,165 143.4,165 161.6,165 179.8,165 198,165 216.2,165 234.4,165 252.6,165 270.8,165 289,165 307.2,165 325.4,165 343.6,165 361.8,165 380,165 398.2,165 416.4,165 434.6,165 452.8,165 471,165 489.2,165 507.4,165 525.6,165 543.8,165 562,165 580.2,165 598.4,165 616.6,165 634.8,165 653,165 671.2,165 689.4,165 707.6,165 725.8,165 744,165" fill="none" stroke="#389e8a" stroke-width="2.4" stroke-linecap="round" stroke-linejoin="round" /><polyline points="9.5,165 22.5,165" fill="none" stroke="var(--fg)" stroke-width="2" stroke-linecap="round" stroke-linejoin="round" /><polyline points="16,165 16,157.5" fill="none" stroke="var(--fg)" stroke-width="1.6" stroke-linecap="round" stroke-linejoin="round" /><polyline points="64.1,165 77.1,165" fill="none" stroke="var(--fg)" stroke-width="2" stroke-linecap="round" stroke-linejoin="round" /><polyline points="70.6,165 70.6,157.5" fill="none" stroke="var(--fg)" stroke-width="1.6" stroke-linecap="round" stroke-linejoin="round" /><polyline points="118.7,165 131.7,165" fill="none" stroke="var(--fg)" stroke-width="2" stroke-linecap="round" stroke-linejoin="round" /><polyline points="125.2,165 125.2,157.5" fill="none" stroke="var(--fg)" stroke-width="1.6" stroke-linecap="round" stroke-linejoin="round" /><polyline points="173.3,165 186.3,165" fill="none" stroke="var(--fg)" stroke-width="2" stroke-linecap="round" stroke-linejoin="round" /><polyline points="179.8,165 179.8,157.5" fill="none" stroke="var(--fg)" stroke-width="1.6" stroke-linecap="round" stroke-linejoin="round" /><polyline points="227.9,165 240.9,165" fill="none" stroke="var(--fg)" stroke-width="2" stroke-linecap="round" stroke-linejoin="round" /><polyline points="234.4,165 234.4,157.5" fill="none" stroke="var(--fg)" stroke-width="1.6" stroke-linecap="round" stroke-linejoin="round" /><polyline points="350.1,165 337.1,165" fill="none" stroke="var(--crash)" stroke-width="2" stroke-linecap="round" stroke-linejoin="round" /><polyline points="343.6,165 343.6,172.5" fill="none" stroke="var(--crash)" stroke-width="1.6" stroke-linecap="round" stroke-linejoin="round" /><polyline points="404.7,165 391.7,165" fill="none" stroke="var(--crash)" stroke-width="2" stroke-linecap="round" stroke-linejoin="round" /><polyline points="398.2,165 398.2,172.5" fill="none" stroke="var(--crash)" stroke-width="1.6" stroke-linecap="round" stroke-linejoin="round" /><polyline points="459.3,165 446.3,165" fill="none" stroke="var(--crash)" stroke-width="2" stroke-linecap="round" stroke-linejoin="round" /><polyline points="452.8,165 452.8,172.5" fill="none" stroke="var(--crash)" stroke-width="1.6" stroke-linecap="round" stroke-linejoin="round" /><polyline points="500.9,165 513.9,165" fill="none" stroke="var(--fg)" stroke-width="2" stroke-linecap="round" stroke-linejoin="round" /><polyline points="507.4,165 507.4,157.5" fill="none" stroke="var(--fg)" stroke-width="1.6" stroke-linecap="round" stroke-linejoin="round" /><polyline points="555.5,165 568.5,165" fill="none" stroke="var(--fg)" stroke-width="2" stroke-linecap="round" stroke-linejoin="round" /><polyline points="562,165 562,157.5" fill="none" stroke="var(--fg)" stroke-width="1.6" stroke-linecap="round" stroke-linejoin="round" /><polyline points="610.1,165 623.1,165" fill="none" stroke="var(--fg)" stroke-width="2" stroke-linecap="round" stroke-linejoin="round" /><polyline points="616.6,165 616.6,157.5" fill="none" stroke="var(--fg)" stroke-width="1.6" stroke-linecap="round" stroke-linejoin="round" /><polyline points="664.7,165 677.7,165" fill="none" stroke="var(--fg)" stroke-width="2" stroke-linecap="round" stroke-linejoin="round" /><polyline points="671.2,165 671.2,157.5" fill="none" stroke="var(--fg)" stroke-width="1.6" stroke-linecap="round" stroke-linejoin="round" /><polyline points="719.3,165 732.3,165" fill="none" stroke="var(--fg)" stroke-width="2" stroke-linecap="round" stroke-linejoin="round" /><polyline points="725.8,165 725.8,157.5" fill="none" stroke="var(--fg)" stroke-width="1.6" stroke-linecap="round" stroke-linejoin="round" /><circle cx="16" cy="165" r="4.5" fill="var(--ok)"/><text x="25" y="169" font-size="10" text-anchor="start" class="mut" >start</text><circle cx="744" cy="165" r="4.5" fill="none" stroke="var(--fg)" stroke-width="2"/><text x="753" y="169" font-size="10" text-anchor="start" class="mut" >end</text><defs><linearGradient id="spd"><stop offset="0%" stop-color="#d1495b"/><stop offset="12%" stop-color="#d86256"/><stop offset="25%" stop-color="#df7c52"/><stop offset="37%" stop-color="#e6954e"/><stop offset="50%" stop-color="#edae49"/><stop offset="62%" stop-color="#bcaa5a"/><stop offset="75%" stop-color="#8ca66c"/><stop offset="87%" stop-color="#5ba17e"/><stop offset="100%" stop-color="#2a9d8f"/></linearGradient></defs><rect x="14" y="304" width="210" height="9" rx="4.5" fill="url(#spd)"/><text x="14" y="299" font-size="9.5" text-anchor="start" class="mut" >speed</text><text x="14" y="324" font-size="9.5" text-anchor="start" class="mut" >0</text><text x="224" y="324" font-size="9.5" text-anchor="end" class="mut" >36+ km/h</text><text x="746" y="313" font-size="10" text-anchor="end" class="mut" >red = inverted</text><text x="746" y="328" font-size="10" text-anchor="end" class="mut" >bar = airframe, spike = top of the quad</text></svg>