<svg xmlns="http://www.w3.org/2000/svg" viewBox="0 0 760 360" width="760" height="360" role="img"><title>Dive and pull-out</title><style>
:root{--bg:#ffffff;--pan:#f4f6f8;--fg:#1b1d21;--mut:#6b7178;--grid:#dfe3e8;
--warn:#c8384b;--ok:#1f8a7d;--acc:#3f6fd0;--halo:#ffffff;
--charge:#1f8a45;--repair:#7b3fcf;--crash:#d1303f}
@media (prefers-color-scheme:dark){:root{--bg:#14161a;--pan:#1c1f25;--fg:#e7e9ec;
--mut:#8b9199;--grid:#2b3037;--warn:#ef6d7d;--ok:#4fbfae;--acc:#7aa2f7;--halo:#14161a;
--charge:#4cc97a;--repair:#a98bf0;--crash:#f0524d}}
text{font-family:'DejaVu Sans','Segoe UI',Helvetica,Arial,sans-serif;fill:var(--fg)}
.mut{fill:var(--mut)}
.ttl{font-weight:600}
.grid{stroke:var(--grid);stroke-width:1;fill:none}
.axis{stroke:var(--mut);stroke-width:1;fill:none;opacity:.5}
.pan{fill:var(--pan)}
</style><rect width="760" height="360" fill="var(--bg)"/><text x="14" y="26" font-size="15" text-anchor="start" class="ttl" >Dive and pull-out</text><text x="746" y="26" font-size="11" text-anchor="end" class="mut" >looking from the side</text><rect x="5" y="44" width="750" height="242" rx="6" class="pan"/><line x1="14" y1="270" x2="746" y2="270" class="axis" stroke-dasharray="5 4"/><text x="18" y="265" font-size="9.5" text-anchor="start" class="mut" >ground</text><polyline points="297.9,60 303,60.6 308.1,62.4 313.3,65.2 318.4,69 323.5,73.8 328.7,79.4 333.8,85.8 338.9,92.8 344.1,100.5 349.2,108.7 354.3,117.4 359.5,126.4 364.6,135.8 369.7,145.4 374.9,155.2 380,165 385.1,174.8 390.3,184.6 395.4,194.2 400.5,203.6 405.7,212.6 410.8,221.3 415.9,229.5 421.1,237.2 426.2,244.2 431.3,250.6 436.5,256.2 441.6,261 446.7,264.8 451.9,267.6 457,269.4 462.1,270" fill="none" stroke="var(--grid)" stroke-width="6" stroke-linecap="round" stroke-linejoin="round" /><polyline points="297.9,60 303,60.6" fill="none" stroke="#eba74a" stroke-width="2.4" stroke-linecap="round" stroke-linejoin="round" /><polyline points="303,60.6 308.1,62.4 313.3,65.2" fill="none" stroke="#dfad4e" stroke-width="2.4" stroke-linecap="round" stroke-linejoin="round" /><polyline points="313.3,65.2 318.4,69" fill="none" stroke="#c3aa58" stroke-width="2.4" stroke-linecap="round" stroke-linejoin="round" /><polyline points="318.4,69 323.5,73.8" fill="none" stroke="#a7a862" stroke-width="2.4" stroke-linecap="round" stroke-linejoin="round" /><polyline points="323.5,73.8 328.7,79.4 333.8,85.8" fill="none" stroke="#8ca66c" stroke-width="2.4" stroke-linecap="round" stroke-linejoin="round" /><polyline points="333.8,85.8 338.9,92.8" fill="none" stroke="#70a376" stroke-width="2.4" stroke-linecap="round" stroke-linejoin="round" /><polyline points="338.9,92.8 344.1,100.5 349.2,108.7" fill="none" stroke="#54a180" stroke-width="2.4" stroke-linecap="round" stroke-linejoin="round" /><polyline points="349.2,108.7 354.3,117.4 359.5,126.4 364.6,135.8 369.7,145.4 374.9,155.2 380,165 385.1,174.8 390.3,184.6 395.4,194.2 400.5,203.6 405.7,212.6" fill="none" stroke="#389e8a" stroke-width="2.4" stroke-linecap="round" stroke-linejoin="round" /><polyline points="405.7,212.6 410.8,221.3 415.9,229.5" fill="none" stroke="#54a180" stroke-width="2.4" stroke-linecap="round" stroke-linejoin="round" /><polyline points="415.9,229.5 421.1,237.2" fill="none" stroke="#70a376" stroke-width="2.4" stroke-linecap="round" stroke-linejoin="round" /><polyline points="421.1,237.2 426.2,244.2 431.3,250.6" fill="none" stroke="#8ca66c" stroke-width="2.4" stroke-linecap="round" stroke-linejoin="round" /><polyline points="431.3,250.6 436.5,256.2" fill="none" stroke="#a7a862" stroke-width="2.4" stroke-linecap="round" stroke-linejoin="round" /><polyline points="436.5,256.2 441.6,261" fill="none" stroke="#c3aa58" stroke-width="2.4" stroke-linecap="round" stroke-linejoin="round" /><polyline points="441.6,261 446.7,264.8 451.9,267.6" fill="none" stroke="#dfad4e" stroke-width="2.4" stroke-linecap="round" stroke-linejoin="round" /><polyline points="451.9,267.6 457,269.4 462.1,270" fill="none" stroke="#eba74a" stroke-width="2.4" stroke-linecap="round" stroke-linejoin="round" /><polyline points="291.4,59.2 304.3,60.8" fill="none" stroke="var(--fg)" stroke-width="2" stroke-linecap="round" stroke-linejoin="round" /><polyline points="297.9,60 298.7,52.6" fill="none" stroke="var(--fg)" stroke-width="1.6" stroke-linecap="round" stroke-linejoin="round" /><polyline points="302.2,59.7 314.1,65" fill="none" stroke="var(--fg)" stroke-width="2" stroke-linecap="round" stroke-linejoin="round" /><polyline points="308.1,62.4 311.2,55.5" fill="none" stroke="var(--fg)" stroke-width="1.6" stroke-linecap="round" stroke-linejoin="round" /><polyline points="313.4,64.9 323.4,73.2" fill="none" stroke="var(--fg)" stroke-width="2" stroke-linecap="round" stroke-linejoin="round" /><polyline points="318.4,69 323.2,63.3" fill="none" stroke="var(--fg)" stroke-width="1.6" stroke-linecap="round" stroke-linejoin="round" /><polyline points="324.4,74.4 332.9,84.3" fill="none" stroke="var(--fg)" stroke-width="2" stroke-linecap="round" stroke-linejoin="round" /><polyline points="328.7,79.4 334.4,74.5" fill="none" stroke="var(--fg)" stroke-width="1.6" stroke-linecap="round" stroke-linejoin="round" /><polyline points="335.2,87.5 342.6,98.1" fill="none" stroke="var(--fg)" stroke-width="2" stroke-linecap="round" stroke-linejoin="round" /><polyline points="338.9,92.8 345.1,88.5" fill="none" stroke="var(--fg)" stroke-width="1.6" stroke-linecap="round" stroke-linejoin="round" /><polyline points="345.8,103.2 352.6,114.3" fill="none" stroke="var(--fg)" stroke-width="2" stroke-linecap="round" stroke-linejoin="round" /><polyline points="349.2,108.7 355.6,104.8" fill="none" stroke="var(--fg)" stroke-width="1.6" stroke-linecap="round" stroke-linejoin="round" /><polyline points="356.3,120.8 362.6,132.1" fill="none" stroke="var(--fg)" stroke-width="2" stroke-linecap="round" stroke-linejoin="round" /><polyline points="359.5,126.4 366,122.8" fill="none" stroke="var(--fg)" stroke-width="1.6" stroke-linecap="round" stroke-linejoin="round" /><polyline points="366.7,139.7 372.8,151.2" fill="none" stroke="var(--fg)" stroke-width="2" stroke-linecap="round" stroke-linejoin="round" /><polyline points="369.7,145.4 376.4,141.9" fill="none" stroke="var(--fg)" stroke-width="1.6" stroke-linecap="round" stroke-linejoin="round" /><polyline points="377,159.2 383,170.8" fill="none" stroke="var(--fg)" stroke-width="2" stroke-linecap="round" stroke-linejoin="round" /><polyline points="380,165 386.6,161.5" fill="none" stroke="var(--fg)" stroke-width="1.6" stroke-linecap="round" stroke-linejoin="round" /><polyline points="387.2,178.8 393.3,190.3" fill="none" stroke="var(--fg)" stroke-width="2" stroke-linecap="round" stroke-linejoin="round" /><polyline points="390.3,184.6 396.9,181.1" fill="none" stroke="var(--fg)" stroke-width="1.6" stroke-linecap="round" stroke-linejoin="round" /><polyline points="397.4,197.9 403.7,209.2" fill="none" stroke="var(--fg)" stroke-width="2" stroke-linecap="round" stroke-linejoin="round" /><polyline points="400.5,203.6 407.1,199.9" fill="none" stroke="var(--fg)" stroke-width="1.6" stroke-linecap="round" stroke-linejoin="round" /><polyline points="407.4,215.7 414.2,226.8" fill="none" stroke="var(--fg)" stroke-width="2" stroke-linecap="round" stroke-linejoin="round" /><polyline points="410.8,221.3 417.2,217.4" fill="none" stroke="var(--fg)" stroke-width="1.6" stroke-linecap="round" stroke-linejoin="round" /><polyline points="417.4,231.9 424.8,242.5" fill="none" stroke="var(--fg)" stroke-width="2" stroke-linecap="round" stroke-linejoin="round" /><polyline points="421.1,237.2 427.2,232.9" fill="none" stroke="var(--fg)" stroke-width="1.6" stroke-linecap="round" stroke-linejoin="round" /><polyline points="427.1,245.7 435.6,255.6" fill="none" stroke="var(--fg)" stroke-width="2" stroke-linecap="round" stroke-linejoin="round" /><polyline points="431.3,250.6 437,245.7" fill="none" stroke="var(--fg)" stroke-width="1.6" stroke-linecap="round" stroke-linejoin="round" /><polyline points="436.6,256.8 446.6,265.1" fill="none" stroke="var(--fg)" stroke-width="2" stroke-linecap="round" stroke-linejoin="round" /><polyline points="441.6,261 446.4,255.2" fill="none" stroke="var(--fg)" stroke-width="1.6" stroke-linecap="round" stroke-linejoin="round" /><polyline points="445.9,265 457.8,270.3" fill="none" stroke="var(--fg)" stroke-width="2" stroke-linecap="round" stroke-linejoin="round" /><polyline points="451.9,267.6 454.9,260.8" fill="none" stroke="var(--fg)" stroke-width="1.6" stroke-linecap="round" stroke-linejoin="round" /><polyline points="455.7,269.2 468.6,270.8" fill="none" stroke="var(--fg)" stroke-width="2" stroke-linecap="round" stroke-linejoin="round" /><polyline points="462.1,270 463,262.6" fill="none" stroke="var(--fg)" stroke-width="1.6" stroke-linecap="round" stroke-linejoin="round" /><circle cx="297.87" cy="60" r="4.5" fill="var(--ok)"/><text x="306.87" y="64" font-size="10" text-anchor="start" class="mut" >start</text><circle cx="462.13" cy="270" r="4.5" fill="none" stroke="var(--fg)" stroke-width="2"/><text x="471.13" y="274" font-size="10" text-anchor="start" class="mut" >end</text><defs><linearGradient id="spd"><stop offset="0%" stop-color="#d1495b"/><stop offset="12%" stop-color="#d86256"/><stop offset="25%" stop-color="#df7c52"/><stop offset="37%" stop-color="#e6954e"/><stop offset="50%" stop-color="#edae49"/><stop offset="62%" stop-color="#bcaa5a"/><stop offset="75%" stop-color="#8ca66c"/><stop offset="87%" stop-color="#5ba17e"/><stop offset="100%" stop-color="#2a9d8f"/></linearGradient></defs><rect x="14" y="304" width="210" height="9" rx="4.5" fill="url(#spd)"/><text x="14" y="299" font-size="9.5" text-anchor="start" class="mut" >speed</text><text x="14" y="324" font-size="9.5" text-anchor="start" class="mut" >0</text><text x="224" y="324" font-size="9.5" text-anchor="end" class="mut" >34+ km/h</text><text x="746" y="313" font-size="10" text-anchor="end" class="mut" >red = inverted</text><text x="746" y="328" font-size="10" text-anchor="end" class="mut" >bar = airframe, spike = top of the quad</text></svg>